<?xml version="1.0" encoding="iso-8859-1"?>
<!-- Generator: Adobe Illustrator 19.0.0, SVG Export Plug-In . SVG Version: 6.00 Build 0)  -->
<svg version="1.1" id="Layer_1" xmlns="http://www.w3.org/2000/svg" xmlns:xlink="http://www.w3.org/1999/xlink" x="0px" y="0px"
	 viewBox="0 0 512 512" style="enable-background:new 0 0 512 512;" xml:space="preserve">
<g>
	<g>
		<path d="M418.889,394.965c-17.759,0-34.909,5.02-49.67,14.36c-22.911-32.112-59.163-52.262-98.852-54.539V229.357
			c32.763-0.19,110.178-7.928,156.341-72.409c4.601-6.427,3.12-15.366-3.307-19.967c-6.426-4.601-15.366-3.121-19.967,3.307
			c-38.164,53.309-105.248,60.006-133.018,60.361c0.292-24.13,5.335-77.853,41.443-116.424
			c27.546-29.425,68.17-44.844,120.912-45.926c-0.289,13.968-1.581,27.16-3.863,39.365c-1.451,7.77,3.669,15.244,11.44,16.697
			c7.772,1.451,15.244-3.671,16.697-11.44c3.392-18.154,4.839-38.088,4.302-59.25c-0.193-7.619-6.324-13.75-13.943-13.943
			c-68.175-1.739-120.88,16.82-156.625,55.137c-19.033,20.402-30.781,43.807-37.989,66.011
			c-6.016-11.018-13.563-20.791-22.648-29.268C186.215,60.623,123.236,66.09,120.577,66.343c-6.834,0.65-12.245,6.059-12.893,12.894
			c-0.253,2.659-5.713,65.626,35.27,109.547c23.379,25.055,56.568,38.489,98.792,40.034v127.45
			c-27.781,4.508-53.358,17.852-73.053,38.314c-13.291-4.404-27.159-6.63-41.351-6.63c-58.881,0-111.031,39.594-126.816,96.282
			c-1.201,4.309-0.316,8.933,2.39,12.495s6.922,5.654,11.396,5.654h483.377c7.904,0,14.311-6.407,14.311-14.311
			C511.998,436.733,470.23,394.965,418.889,394.965z M164.027,169.413c-22.492-23.983-27.174-56.872-27.937-74.711
			c17.763,0.714,50.409,5.331,74.523,27.831c19.055,17.779,29.424,43.853,30.907,77.63
			C207.832,198.686,181.803,188.368,164.027,169.413z M35.07,473.762L35.07,473.762c17.153-34.432,52.776-57.188,92.27-57.188
			c13.853,0,27.296,2.703,39.953,8.036c5.835,2.46,12.591,0.79,16.611-4.1c19.499-23.72,48.263-37.324,78.919-37.324
			c37.656,0,72.133,20.627,89.978,53.83c2.097,3.903,5.883,6.613,10.254,7.342c4.375,0.728,8.831-0.608,12.08-3.619
			c11.936-11.061,27.475-17.152,43.754-17.152c30.64,0,56.358,21.483,62.887,50.175H35.07z"/>
	</g>
</g>
<g>
	<g>
		<path d="M438.773,100.389c-7.383-2.824-15.658,0.87-18.482,8.252c-0.425,1.111-0.86,2.21-1.305,3.294
			c-2.994,7.314,0.508,15.672,7.824,18.666c1.775,0.726,3.609,1.07,5.417,1.07c5.637,0,10.982-3.353,13.249-8.893
			c0.527-1.288,1.043-2.59,1.549-3.908C449.85,111.488,446.155,103.214,438.773,100.389z"/>
	</g>
</g>
<g>
</g>
<g>
</g>
<g>
</g>
<g>
</g>
<g>
</g>
<g>
</g>
<g>
</g>
<g>
</g>
<g>
</g>
<g>
</g>
<g>
</g>
<g>
</g>
<g>
</g>
<g>
</g>
<g>
</g>
</svg>
